#!OML:ASF F:\VICON\USERDATA\INSTALL\rory3\rory3.ASF
:FULLY-SPECIFIED
:DEGREES
388
root 0.161263 17.1376 3.71883 7.11526 1.3412 -8.6388
lowerback -8.48437 0.0175288 6.1347
upperback -3.98993 -0.481747 3.07429
thorax 0.586538 -0.286636 -0.305274
lowerneck -15.2962 -3.16387 -7.0632
upperneck 27.8046 -3.9486 4.63403
head 11.8851 -1.94337 2.35698
rclavicle 1.08586e-014 1.49089e-016
rhumerus -40.6767 3.77865 -85.3775
rradius 33.0219
rwrist 1.77906
rhand -24.1466 -49.3361
rfingers 7.12502
rthumb 2.33581 -79.3031
lclavicle 1.08586e-014 1.49089e-016
lhumerus -42.2164 -6.07841 88.4037
lradius 28.4979
lwrist 7.22028
lhand -32.3406 -26.2417
lfingers 7.12502
lthumb -5.57755 3.66491
rfemur -23.2522 6.88398 34.6464
rtibia 32.834
rfoot -12.8958 -9.83019
rtoes 6.04197
lfemur -26.4103 4.0667 -9.20445
ltibia 73.6382
lfoot -10.858 0.780373
ltoes -19.9557
389
root 0.15307 17.1306 3.84362 7.0863 1.49197 -8.74698
lowerback -8.82252 0.0423349 6.31594
upperback -3.73378 -0.509313 3.08791
thorax 1.03571 -0.287413 -0.396975
lowerneck -15.5413 -3.24654 -7.00989
upperneck 27.7317 -4.01761 4.48805
head 11.9076 -1.98301 2.27921
rclavicle -7.647e-015 -4.82053e-015
rhumerus -40.0692 3.98409 -85.3082
rradius 33.2817
rwrist 1.95285
rhand -23.1531 -50.7066
rfingers 7.12502
rthumb 3.29527 -80.6608
lclavicle -7.647e-015 -4.82053e-015
lhumerus -42.2533 -5.81074 88.0981
lradius 28.5582
lwrist 7.30333
lhand -32.7988 -26.5878
lfingers 7.12502
lthumb -6.01994 3.30667
rfemur -22.799 6.48108 34.8744
rtibia 32.9801
rfoot -13.7547 -9.68335
rtoes 6.19539
lfemur -27.5464 3.91263 -9.30137
ltibia 73.6538
lfoot -11.4834 1.54074
ltoes -18.5224
390
root 0.142563 17.1197 3.95713 6.99187 1.48353 -8.83209
lowerback -8.44078 0.0847325 6.42853
upperback -3.82141 -0.421417 3.08694
thorax 0.736971 -0.25333 -0.450783
lowerneck -15.3988 -3.20622 -6.99809
upperneck 27.6921 -3.98754 4.54254
head 11.8614 -1.96277 2.30304
rclavicle 3.11222e-015 9.88954e-015
rhumerus -39.835 4.20196 -85.3213
rradius 32.9711
rwrist 0.868767
rhand -24.9432 -47.571
rfingers 7.12502
rthumb 1.56638 -77.545
lclavicle 3.11222e-015 9.88954e-015
lhumerus -42.7393 -5.61639 87.8385
lradius 28.6194
lwrist 7.28997
lhand -32.9138 -25.3213
lfingers 7.12502
lthumb -6.13096 4.56998
rfemur -22.2964 6.31305 35.0761
rtibia 33.0912
rfoot -14.3929 -9.60782
rtoes 6.50608
lfemur -28.6871 3.88209 -9.39672
ltibia 73.6067
lfoot -12.1583 2.10084
ltoes -16.4881
391
root 0.131333 17.1006 4.0624 6.99646 1.36454 -9.18924
lowerback -8.19869 0.235874 6.8069
upperback -3.79062 -0.229147 3.13651
thorax 0.641963 -0.162953 -0.592467
lowerneck -15.5215 -3.23422 -7.05016
upperneck 27.5807 -4.06216 4.75293
head 11.8538 -1.97231 2.37743
rclavicle -1.62211e-014 2.31087e-015
rhumerus -39.3613 4.26406 -85.3296
rradius 33.2718
rwrist 0.449975
rhand -24.8062 -48.4145
rfingers 7.12502
rthumb 1.69874 -78.3875
lclavicle -1.62211e-014 2.31087e-015
lhumerus -42.9536 -5.69486 87.6729
lradius 28.7701
lwrist 7.67442
lhand -32.7257 -24.2466
lfingers 7.12502
lthumb -5.94936 5.64984
rfemur -21.9138 6.29784 35.5685
rtibia 33.1428
rfoot -14.8597 -9.5279
rtoes 6.1274
lfemur -30.0208 3.97953 -9.1789
ltibia 73.4035
lfoot -12.5958 2.41196
ltoes -13.2433
392
root 0.123276 17.0921 4.1769 7.06059 1.26914 -9.31426
lowerback -8.24637 0.371477 6.95692
upperback -3.69106 -0.0718939 3.14746
thorax 0.780192 -0.0805819 -0.650888
lowerneck -15.997 -3.44232 -6.96868
upperneck 27.7034 -4.30925 4.59646
head 12.0118 -2.08816 2.26402
rclavicle -1.45579e-014 1.53064e-014
rhumerus -38.9104 4.03496 -85.0315
rradius 33.5061
rwrist 1.31716
rhand -23.981 -48.9011
rfingers 7.12502
rthumb 2.49566 -78.8663
lclavicle -1.45579e-014 1.53064e-014
lhumerus -43.0679 -5.72475 87.5462
lradius 28.9752
lwrist 8.19514
lhand -32.7284 -24.066
lfingers 7.12502
lthumb -5.95202 5.83036
rfemur -21.575 6.15307 35.793
rtibia 33.1935
rfoot -15.1947 -9.3364
rtoes 5.91631
lfemur -31.2663 3.91253 -9.29527
ltibia 72.9431
lfoot -12.5495 2.7526
ltoes -7.63957
393
root 0.117966 17.0873 4.2982 7.12792 1.29164 -9.24018
lowerback -8.4519 0.46991 6.96309
upperback -3.6016 0.032902 3.09423
thorax 0.993407 -0.0213925 -0.699511
lowerneck -15.3757 -3.3583 -7.02376
upperneck 27.0258 -4.2436 4.77884
head 11.6217 -2.04607 2.3486
rclavicle -2.27671e-015 -3.61291e-014
rhumerus -38.5731 4.01041 -84.8437
rradius 33.6299
rwrist 1.80788
rhand -23.3112 -48.7443
rfingers 7.12502
rthumb 3.14258 -78.7009
lclavicle -2.27671e-015 -3.61291e-014
lhumerus -43.271 -5.82173 87.4792
lradius 29.2375
lwrist 8.61709
lhand -32.766 -23.9932
lfingers 7.12502
lthumb -5.9883 5.90215
rfemur -21.2106 5.78693 35.7977
rtibia 33.2786
rfoot -15.5016 -9.02736
rtoes 6.7209
lfemur -32.3501 3.66798 -9.66523
ltibia 72.3076
lfoot -13.697 3.64112
ltoes -8.62876
394
root 0.109138 17.0675 4.4095 7.19694 1.27823 -9.62287
lowerback -8.44129 0.591902 7.40009
upperback -3.63316 0.162646 3.18174
thorax 0.960715 0.038683 -0.839297
lowerneck -15.2326 -3.41447 -6.98554
upperneck 26.9364 -4.29877 4.63455
head 11.5583 -2.0863 2.28014
rclavicle -2.39629e-015 3.31473e-014
rhumerus -38.2087 4.16829 -84.7494
rradius 33.4935
rwrist 1.7907
rhand -23.4253 -48.6726
rfingers 7.12502
rthumb 3.03242 -78.6308
lclavicle -2.39629e-015 3.31473e-014
lhumerus -43.6089 -5.96094 87.4831
lradius 29.4876
lwrist 8.92607
lhand -32.5951 -23.1948
lfingers 7.12502
lthumb -5.82335 6.70518
rfemur -20.9043 5.70651 36.3029
rtibia 33.432
rfoot -15.877 -8.93346
rtoes 7.06623
lfemur -33.496 3.70351 -9.46277
ltibia 71.6406
lfoot -14.0112 4.30945
ltoes -8.10477
395
root 0.102012 17.047 4.51628 7.29668 1.26315 -9.8539
lowerback -8.26185 0.679483 7.67956
upperback -3.7711 0.285715 3.23059
thorax 0.724948 0.0881443 -0.933676
lowerneck -15.1601 -3.46798 -7.1605
upperneck 27.0344 -4.37129 4.7575
head 11.5945 -2.12306 2.34709
rclavicle 6.25085e-015 -3.98315e-014
rhumerus -38.1203 4.98584 -85.1476
rradius 33.0612
rwrist -0.139247
rhand -28.3199 -44.4332
rfingers 7.12502
rthumb -1.69484 -74.4062
lclavicle 6.25085e-015 -3.98315e-014
lhumerus -43.9797 -5.9258 87.4089
lradius 29.5802
lwrist 8.99946
lhand -32.4985 -23.1088
lfingers 7.12502
lthumb -5.73002 6.79369
rfemur -20.6885 5.72665 36.6378
rtibia 33.639
rfoot -16.3162 -9.0133
rtoes 7.02122
lfemur -34.6527 3.65782 -9.44558
ltibia 70.8154
lfoot -14.5325 4.69181
ltoes -8.61175
396
root 0.0968257 17.0322 4.62261 7.45211 1.22106 -9.72317
lowerback -8.1671 0.772525 7.60906
upperback -3.84007 0.430561 3.15256
thorax 0.611601 0.155758 -0.963725
lowerneck -15.0503 -3.48786 -7.23874
upperneck 26.8741 -4.42054 4.8994
head 11.5196 -2.13611 2.40501
rclavicle 1.23316e-014 2.2239e-015
rhumerus -37.7261 4.49154 -84.6363
rradius 34.307
rwrist 2.65912
rhand -22.0766 -52.1674
rfingers 7.12502
rthumb 4.33482 -82.1031
lclavicle 1.23316e-014 2.2239e-015
lhumerus -44.2846 -5.92553 87.2785
lradius 29.6845
lwrist 9.04697
lhand -32.6287 -24.3802
lfingers 7.12502
lthumb -5.85574 5.51887
rfemur -20.5269 5.73512 36.5682
rtibia 33.8436
rfoot -16.7542 -9.16533
rtoes 6.64595
lfemur -35.7483 3.42219 -9.84192
ltibia 69.8071
lfoot -14.9287 5.23443
ltoes -9.31544
397
root 0.0868883 17.0159 4.72592 7.64207 0.957871 -9.80415
lowerback -8.1272 0.950702 7.69746
upperback -3.82081 0.663209 3.13729
thorax 0.626834 0.271362 -1.00845
lowerneck -15.1538 -3.51769 -7.23625
upperneck 26.7265 -4.47169 4.97518
head 11.4892 -2.1469 2.4222
rclavicle -2.34116e-015 4.45402e-014
rhumerus -37.3898 5.02285 -84.984
rradius 33.9754
rwrist 0.948416
rhand -26.9894 -46.6611
rfingers 7.12502
rthumb -0.409894 -76.6404
lclavicle -2.34116e-015 4.45402e-014
lhumerus -44.4847 -5.98017 87.1523
lradius 29.9269
lwrist 9.07952
lhand -32.7922 -25.0909
lfingers 7.12502
lthumb -6.01356 4.80373
rfemur -20.4116 6.07325 36.7186
rtibia 34.078
rfoot -17.1341 -9.41358
rtoes 5.65228
lfemur -36.8214 3.49044 -9.9498
ltibia 68.623
lfoot -15.3834 5.56973
ltoes -11.0614
398
root 0.0752057 17.0022 4.83926 7.74319 0.592182 -9.97767
lowerback -8.17702 1.15273 7.85431
upperback -3.7644 0.909667 3.1346
thorax 0.732565 0.396667 -1.07503
lowerneck -15.1617 -3.49656 -7.21412
upperneck 26.657 -4.46856 5.06275
head 11.4651 -2.1316 2.45054
rclavicle -1.93085e-014 -5.09386e-015
rhumerus -36.9216 4.86047 -84.8616
rradius 34.2507
rwrist 0.630649
rhand -26.0267 -48.0573
rfingers 7.12502
rthumb 0.519988 -78.0364
lclavicle -1.93085e-014 -5.09386e-015
lhumerus -44.6639 -5.98552 86.975
lradius 30.1994
lwrist 9.06416
lhand -32.7529 -24.6779
lfingers 7.12502
lthumb -5.97567 5.21783
rfemur -20.0948 6.59457 36.9723
rtibia 34.173
rfoot -17.3929 -9.68452
rtoes 5.0708
lfemur -37.6995 3.64956 -9.92891
ltibia 67.2876
lfoot -15.6185 5.7733
ltoes -11.837
399
root 0.0896239 17.0066 4.95727 8.06183 0.726494 -9.44763
lowerback -8.43971 1.17527 7.7089
upperback -3.8807 0.934206 2.87279
thorax 0.76116 0.406875 -1.26063
lowerneck -15.0652 -3.4306 -7.0881
upperneck 26.6508 -4.42451 5.09605
head 11.4369 -2.0959 2.44894
rclavicle -1.8063e-014 -1.22501e-014
rhumerus -36.5224 4.84005 -84.7896
rradius 34.2398
rwrist 0.808437
rhand -24.9718 -49.1787
rfingers 7.12502
rthumb 1.53877 -79.1529
lclavicle -1.8063e-014 -1.22501e-014
lhumerus -45.0116 -5.97404 86.8427
lradius 30.4597
lwrist 9.19358
lhand -32.7774 -24.2226
lfingers 7.12502
lthumb -5.99928 5.67244
rfemur -19.9602 5.95761 36.3628
rtibia 34.1106
rfoot -17.6365 -9.31004
rtoes 4.34797
lfemur -38.6295 3.02714 -10.7998
ltibia 65.7047
lfoot -15.6584 6.12633
ltoes -10.5918
400
root 0.0717163 16.9977 5.07552 8.11241 0.624415 -9.80763
lowerback -8.16051 1.2631 7.96154
upperback -4.08164 1.07496 2.97723
thorax 0.408312 0.459789 -1.28565
lowerneck -14.9541 -3.34366 -6.94419
upperneck 26.8353 -4.38271 5.19172
head 11.4798 -2.05264 2.4701
rclavicle -1.24419e-014 4.54596e-014
rhumerus -36.5525 5.07378 -84.9039
rradius 33.697
rwrist 1.80839
rhand -26.4453 -47.3111
rfingers 7.12502
rthumb 0.115708 -77.2908
lclavicle -1.24419e-014 4.54596e-014
lhumerus -45.6129 -6.02208 86.8263
lradius 30.6291
lwrist 9.42615
lhand -32.969 -24.6835
lfingers 7.12502
lthumb -6.18427 5.2062
rfemur -19.3951 6.45066 36.8483
rtibia 33.8535
rfoot -17.7687 -9.58846
rtoes 4.79628
lfemur -39.3252 3.01994 -10.434
ltibia 64.1233
lfoot -16.04 5.84854
ltoes -8.268
